<?xml version="1.0" encoding="UTF-8"?>
<svg width="39px" height="39px" viewBox="0 0 39 39" version="1.1" xmlns="http://www.w3.org/2000/svg" xmlns:xlink="http://www.w3.org/1999/xlink">
    <!-- Generator: Sketch 56.3 (81716) - https://sketch.com -->
    <title>Group 5</title>
    <desc>Created with Sketch.</desc>
    <g id="Page-1" stroke="none" stroke-width="1" fill="none" fill-rule="evenodd">
        <g id="Desktop_blue" transform="translate(-1113.000000, -352.000000)">
            <g id="Group-5" transform="translate(1113.000000, 352.000000)">
                <circle id="Oval-Copy-2" fill="#321D49" cx="19.5" cy="19.5" r="19.5"></circle>
                <g id="behance" transform="translate(9.000000, 13.000000)" fill="#DFF0EA" fill-rule="nonzero">
                    <path d="M8.12,6.00716022 C9.233,5.44282873 9.814,4.58890608 9.814,3.25975691 C9.814,0.638585635 7.973,0 5.8485,0 L0,0 L0,13.1578343 L6.013,13.1578343 C8.267,13.1578343 10.3845,12.0106077 10.3845,9.33745856 C10.3845,7.68530387 9.646,6.4638232 8.12,6.00716022 L8.12,6.00716022 Z M2.7265,2.24618785 L5.285,2.24618785 C6.2685,2.24618785 7.154,2.53949171 7.154,3.74983425 C7.154,4.86735912 6.4645,5.31659669 5.4915,5.31659669 L2.7265,5.31659669 L2.7265,2.24618785 L2.7265,2.24618785 Z M5.642,10.9227845 L2.7265,10.9227845 L2.7265,7.29918232 L5.698,7.29918232 C6.8985,7.29918232 7.658,7.83009945 7.658,9.17781215 C7.658,10.5069613 6.7515,10.9227845 5.642,10.9227845 L5.642,10.9227845 Z M18.1895,1.98629834 L13.16,1.98629834 L13.16,0.690563536 L18.1895,0.690563536 L18.1895,1.98629834 L18.1895,1.98629834 Z M20.16,8.5318011 C20.16,5.71385635 18.606,3.36371271 15.7885,3.36371271 C13.0515,3.36371271 11.193,5.54678453 11.193,8.40556906 C11.193,11.3720221 12.9535,13.4065856 15.7885,13.4065856 C17.934,13.4065856 19.3235,12.3818785 19.992,10.2025193 L17.815,10.2025193 C17.5805,11.0156022 16.6145,11.4462762 15.8655,11.4462762 C14.42,11.4462762 13.6605,10.5478011 13.6605,9.02187845 L20.139,9.02187845 C20.1495,8.86594475 20.16,8.69887293 20.16,8.5318011 Z M13.664,7.37343646 C13.7445,6.12225414 14.5285,5.33887293 15.7115,5.33887293 C16.9505,5.33887293 17.5735,6.11111602 17.6785,7.37343646 L13.664,7.37343646 Z" id="Shape"></path>
                </g>
            </g>
        </g>
    </g>
</svg>