<?xml version="1.0" encoding="UTF-8"?>
<svg width="23px" height="23px" viewBox="0 0 23 23" version="1.1" xmlns="http://www.w3.org/2000/svg" xmlns:xlink="http://www.w3.org/1999/xlink">
    <!-- Generator: Sketch 54.1 (76490) - https://sketchapp.com -->
    <title>Group 5</title>
    <desc>Created with Sketch.</desc>
    <g id="Page-1" stroke="none" stroke-width="1" fill="none" fill-rule="evenodd">
        <g id="Desktop_blue" transform="translate(-1182.000000, -318.000000)">
            <g id="Group-5" transform="translate(1182.000000, 318.000000)">
                <circle id="Oval-Copy-2" fill="#4F3A65" cx="11.5" cy="11.5" r="11.5"></circle>
                <g id="behance" transform="translate(6.000000, 7.000000)" fill="#DFF0EA" fill-rule="nonzero">
                    <path d="M4.83333333,3.58453039 C5.49583333,3.24861878 5.84166667,2.74033149 5.84166667,1.94917127 C5.84166667,0.388950276 4.74583333,0.00883977901 3.48125,0.00883977901 L0,0.00883977901 L0,7.84088398 L3.57916667,7.84088398 C4.92083333,7.84088398 6.18125,7.15801105 6.18125,5.56685083 C6.18125,4.58342541 5.74166667,3.85635359 4.83333333,3.58453039 L4.83333333,3.58453039 Z M1.62291667,1.34585635 L3.14583333,1.34585635 C3.73125,1.34585635 4.25833333,1.52044199 4.25833333,2.24088398 C4.25833333,2.90607735 3.84791667,3.17348066 3.26875,3.17348066 L1.62291667,3.17348066 L1.62291667,1.34585635 L1.62291667,1.34585635 Z M3.35833333,6.51049724 L1.62291667,6.51049724 L1.62291667,4.35359116 L3.39166667,4.35359116 C4.10625,4.35359116 4.55833333,4.66961326 4.55833333,5.4718232 C4.55833333,6.26298343 4.01875,6.51049724 3.35833333,6.51049724 L3.35833333,6.51049724 Z M10.8270833,1.19116022 L7.83333333,1.19116022 L7.83333333,0.419889503 L10.8270833,0.419889503 L10.8270833,1.19116022 L10.8270833,1.19116022 Z M12,5.08729282 C12,3.40994475 11.075,2.01104972 9.39791667,2.01104972 C7.76875,2.01104972 6.6625,3.31049724 6.6625,5.0121547 C6.6625,6.77790055 7.71041667,7.98895028 9.39791667,7.98895028 C10.675,7.98895028 11.5020833,7.37900552 11.9,6.08176796 L10.6041667,6.08176796 C10.4645833,6.56574586 9.88958333,6.82209945 9.44375,6.82209945 C8.58333333,6.82209945 8.13125,6.28729282 8.13125,5.37900552 L11.9875,5.37900552 C11.99375,5.28618785 12,5.18674033 12,5.08729282 Z M8.13333333,4.39779006 C8.18125,3.65303867 8.64791667,3.18674033 9.35208333,3.18674033 C10.0895833,3.18674033 10.4604167,3.64640884 10.5229167,4.39779006 L8.13333333,4.39779006 Z" id="Shape"></path>
                </g>
            </g>
        </g>
    </g>
</svg>