<?xml version="1.0" encoding="UTF-8"?>
<svg width="39px" height="39px" viewBox="0 0 39 39" version="1.1" xmlns="http://www.w3.org/2000/svg" xmlns:xlink="http://www.w3.org/1999/xlink">
    <!-- Generator: Sketch 56.3 (81716) - https://sketch.com -->
    <title>Group 6</title>
    <desc>Created with Sketch.</desc>
    <g id="Page-1" stroke="none" stroke-width="1" fill="none" fill-rule="evenodd">
        <g id="Desktop_blue" transform="translate(-1113.000000, -414.000000)">
            <g id="Group-6" transform="translate(1113.000000, 414.000000)">
                <circle id="Oval-Copy-3" fill="#321D49" cx="19.5" cy="19.5" r="19.5"></circle>
                <g id="dribbble" transform="translate(9.000000, 9.000000)" fill="#DFF0EA" fill-rule="nonzero">
                    <path d="M10.08,0 C4.52185548,0 0,4.52185548 0,10.08 C0,15.6381445 4.52185548,20.16 10.08,20.16 C15.6381445,20.16 20.16,15.6381445 20.16,10.08 C20.16,4.52185548 15.6381445,0 10.08,0 Z M16.7445871,4.64842452 C17.9437413,6.11352 18.6699077,7.97958 18.6888484,10.0117568 C18.4049826,9.95172387 15.5584394,9.37435935 12.6936058,9.73463806 C12.4598148,9.16393935 12.2391523,8.66189032 11.9369148,8.04323032 C15.1202845,6.74352 16.5630658,4.89396194 16.7445871,4.64842452 L16.7445871,4.64842452 Z M15.7874342,3.65278065 C15.6325761,3.87336194 14.3365239,5.6153729 11.2749677,6.76290774 C9.8640929,4.17072194 8.30035161,2.04124065 8.06237419,1.72258258 C10.7927535,1.06441548 13.6700245,1.77420194 15.7874342,3.65278065 L15.7874342,3.65278065 Z M6.41953742,2.30132903 C6.64654065,2.61263032 8.18508194,4.74475355 9.61168645,7.2807271 C5.58427935,8.35022323 2.03705419,8.33481871 1.65198194,8.32973806 C2.21028387,5.65800968 4.01078323,3.43748323 6.41953742,2.30132903 Z M1.47013548,10.0931284 C1.47013548,10.005091 1.47188323,9.91746 1.47452516,9.83003226 C1.85122452,9.83775484 6.02353161,9.89152839 10.3232206,8.60474323 C10.5696929,9.08712 10.8051503,9.57677226 11.0212606,10.0658961 C7.90788194,10.9428155 5.07918194,13.4608645 3.68354903,15.8499465 C2.30840129,14.3235581 1.47013548,12.3045097 1.47013548,10.0931284 Z M4.79519419,16.8854632 C5.69454968,15.0469606 8.13533226,12.6737303 11.6064697,11.4895742 C12.8152568,14.6307542 13.3151516,17.2633413 13.4431839,18.0187316 C10.6747606,19.1979697 7.3458,18.8744342 4.79519419,16.8854632 L4.79519419,16.8854632 Z M14.8906394,17.2305 C14.8023987,16.7067465 14.3441245,14.1862994 13.2180097,11.0917394 C15.9160355,10.6598439 18.2864613,11.3668258 18.5810168,11.4597813 C18.1972452,13.8554477 16.8221787,15.9244084 14.8906394,17.2305 Z" id="Shape"></path>
                </g>
            </g>
        </g>
    </g>
</svg>