<?xml version="1.0" encoding="UTF-8"?>
<svg width="23px" height="23px" viewBox="0 0 23 23" version="1.1" xmlns="http://www.w3.org/2000/svg" xmlns:xlink="http://www.w3.org/1999/xlink">
    <!-- Generator: Sketch 54.1 (76490) - https://sketchapp.com -->
    <title>Group 3</title>
    <desc>Created with Sketch.</desc>
    <g id="Page-1" stroke="none" stroke-width="1" fill="none" fill-rule="evenodd">
        <g id="Desktop_blue" transform="translate(-1182.000000, -280.000000)">
            <g id="Group-3" transform="translate(1182.000000, 280.000000)">
                <circle id="Oval-Copy" fill="#4F3A65" cx="11.5" cy="11.5" r="11.5"></circle>
                <g id="instagram" transform="translate(6.000000, 6.000000)" fill="#DFF0EA" fill-rule="nonzero">
                    <path d="M6.00266667,2.93986637 C4.30666667,2.93986637 2.93866667,4.31091314 2.93866667,6.01069042 C2.93866667,7.71046771 4.30666667,9.08151448 6.00266667,9.08151448 C7.69866667,9.08151448 9.06666667,7.71046771 9.06666667,6.01069042 C9.06666667,4.31091314 7.69866667,2.93986637 6.00266667,2.93986637 Z M6.00266667,8.00712695 C4.90666667,8.00712695 4.01066667,7.11180401 4.01066667,6.01069042 C4.01066667,4.90957684 4.904,4.0142539 6.00266667,4.0142539 C7.10133333,4.0142539 7.99466667,4.90957684 7.99466667,6.01069042 C7.99466667,7.11180401 7.09866667,8.00712695 6.00266667,8.00712695 L6.00266667,8.00712695 Z M9.90666667,2.8142539 C9.90666667,3.21247216 9.58666667,3.53051225 9.192,3.53051225 C8.79466667,3.53051225 8.47733333,3.20979955 8.47733333,2.8142539 C8.47733333,2.41870824 8.79733333,2.09799555 9.192,2.09799555 C9.58666667,2.09799555 9.90666667,2.41870824 9.90666667,2.8142539 Z M11.936,3.54120267 C11.8906667,2.58173719 11.672,1.73184855 10.9706667,1.03162584 C10.272,0.331403118 9.424,0.112249443 8.46666667,0.064142539 C7.48,0.00801781737 4.52266667,0.00801781737 3.536,0.064142539 C2.58133333,0.109576837 1.73333333,0.328730512 1.032,1.02895323 C0.330666667,1.72917595 0.114666667,2.57906459 0.0666666667,3.53853007 C0.0106666667,4.52739421 0.0106666667,7.49131403 0.0666666667,8.48017817 C0.112,9.43964365 0.330666667,10.2895323 1.032,10.989755 C1.73333333,11.6899777 2.57866667,11.9091314 3.536,11.9572383 C4.52266667,12.013363 7.48,12.013363 8.46666667,11.9572383 C9.424,11.911804 10.272,11.6926503 10.9706667,10.989755 C11.6693333,10.2895323 11.888,9.43964365 11.936,8.48017817 C11.992,7.49131403 11.992,4.53006682 11.936,3.54120267 Z M10.6613333,9.54120267 C10.4533333,10.0650334 10.0506667,10.4685969 9.52533333,10.6797327 C8.73866667,10.9924276 6.872,10.9202673 6.00266667,10.9202673 C5.13333333,10.9202673 3.264,10.989755 2.48,10.6797327 C1.95733333,10.4712695 1.55466667,10.067706 1.344,9.54120267 C1.032,8.75278396 1.104,6.88195991 1.104,6.01069042 C1.104,5.13942094 1.03466667,3.26592428 1.344,2.48017817 C1.552,1.95634744 1.95466667,1.55278396 2.48,1.34164811 C3.26666667,1.02895323 5.13333333,1.10111359 6.00266667,1.10111359 C6.872,1.10111359 8.74133333,1.03162584 9.52533333,1.34164811 C10.048,1.55011136 10.4506667,1.95367483 10.6613333,2.48017817 C10.9733333,3.26859688 10.9013333,5.13942094 10.9013333,6.01069042 C10.9013333,6.88195991 10.9733333,8.75545657 10.6613333,9.54120267 Z" id="Shape"></path>
                </g>
            </g>
        </g>
    </g>
</svg>