<?xml version="1.0" encoding="UTF-8"?>
<svg width="39px" height="38px" viewBox="0 0 39 38" version="1.1" xmlns="http://www.w3.org/2000/svg" xmlns:xlink="http://www.w3.org/1999/xlink">
    <!-- Generator: Sketch 56.3 (81716) - https://sketch.com -->
    <title>Group 3</title>
    <desc>Created with Sketch.</desc>
    <g id="Page-1" stroke="none" stroke-width="1" fill="none" fill-rule="evenodd">
        <g id="Desktop_blue" transform="translate(-1113.000000, -287.000000)">
            <g id="Group-3" transform="translate(1113.000000, 287.000000)">
                <ellipse id="Oval-Copy" fill="#321D49" cx="19.5" cy="19" rx="19.5" ry="19"></ellipse>
                <g id="instagram" transform="translate(9.000000, 9.000000)" fill="#DFF0EA" fill-rule="nonzero">
                    <path d="M10.04304,4.90193318 C7.19376,4.90193318 4.89552,7.20529176 4.89552,10.0609176 C4.89552,12.9165434 7.19376,15.219902 10.04304,15.219902 C12.89232,15.219902 15.19056,12.9165434 15.19056,10.0609176 C15.19056,7.20529176 12.89232,4.90193318 10.04304,4.90193318 Z M10.04304,13.414931 C8.20176,13.414931 6.69648,11.9107884 6.69648,10.0609176 C6.69648,8.21104677 8.19728,6.70690423 10.04304,6.70690423 C11.8888,6.70690423 13.3896,8.21104677 13.3896,10.0609176 C13.3896,11.9107884 11.88432,13.414931 10.04304,13.414931 L10.04304,13.414931 Z M16.60176,4.69090423 C16.60176,5.35991091 16.06416,5.89421826 15.40112,5.89421826 C14.7336,5.89421826 14.20048,5.35542094 14.20048,4.69090423 C14.20048,4.02638753 14.73808,3.4875902 15.40112,3.4875902 C16.06416,3.4875902 16.60176,4.02638753 16.60176,4.69090423 Z M20.01104,5.91217817 C19.93488,4.30027617 19.56752,2.87246325 18.38928,1.69608909 C17.21552,0.519714922 15.79088,0.151536748 14.18256,0.0707171492 C12.52496,-0.0235723831 7.55664,-0.0235723831 5.89904,0.0707171492 C4.2952,0.147046771 2.87056,0.515224944 1.69232,1.69159911 C0.51408,2.86797327 0.1512,4.29578619 0.07056,5.9076882 C-0.02352,7.56897996 -0.02352,12.5483653 0.07056,14.209657 C0.14672,15.821559 0.51408,17.2493719 1.69232,18.4257461 C2.87056,19.6021203 4.29072,19.9702984 5.89904,20.051118 C7.55664,20.1454076 12.52496,20.1454076 14.18256,20.051118 C15.79088,19.9747884 17.21552,19.6066102 18.38928,18.4257461 C19.56304,17.2493719 19.9304,15.821559 20.01104,14.209657 C20.10512,12.5483653 20.10512,7.57346993 20.01104,5.91217817 Z M17.8696,15.9921782 C17.52016,16.8722138 16.84368,17.5502004 15.96112,17.9049087 C14.63952,18.4302361 11.50352,18.3090067 10.04304,18.3090067 C8.58256,18.3090067 5.44208,18.4257461 4.12496,17.9049087 C3.24688,17.5546904 2.5704,16.8767038 2.21648,15.9921782 C1.69232,14.6676347 1.81328,11.5246503 1.81328,10.0609176 C1.81328,8.59718486 1.6968,5.44971047 2.21648,4.12965702 C2.56592,3.24962138 3.2424,2.57163474 4.12496,2.2169265 C5.44656,1.69159911 8.58256,1.81282851 10.04304,1.81282851 C11.50352,1.81282851 14.644,1.69608909 15.96112,2.2169265 C16.8392,2.56714477 17.51568,3.2451314 17.8696,4.12965702 C18.39376,5.45420045 18.2728,8.59718486 18.2728,10.0609176 C18.2728,11.5246503 18.39376,14.6721247 17.8696,15.9921782 Z" id="Shape"></path>
                </g>
            </g>
        </g>
    </g>
</svg>