<?xml version="1.0" encoding="UTF-8"?>
<svg width="23px" height="23px" viewBox="0 0 23 23" version="1.1" xmlns="http://www.w3.org/2000/svg" xmlns:xlink="http://www.w3.org/1999/xlink">
    <!-- Generator: Sketch 54.1 (76490) - https://sketchapp.com -->
    <title>Group 2</title>
    <desc>Created with Sketch.</desc>
    <g id="Page-1" stroke="none" stroke-width="1" fill="none" fill-rule="evenodd">
        <g id="Desktop_blue" transform="translate(-1182.000000, -243.000000)">
            <g id="Group-2" transform="translate(1182.000000, 243.000000)">
                <circle id="Oval" fill="#4F3A65" cx="11.5" cy="11.5" r="11.5"></circle>
                <g id="linkedin-in" transform="translate(7.000000, 7.000000)" fill="#DFF0EA" fill-rule="nonzero">
                    <path d="M2.23839286,10 L0.165178571,10 L0.165178571,3.32351167 L2.23839286,3.32351167 L2.23839286,10 Z M1.20066964,2.41277706 C0.537723214,2.41277706 0,1.86365766 0,1.20069643 C9.88113182e-09,0.537570099 0.537558117,-4.06197667e-17 1.20066964,0 C1.86378117,4.06197667e-17 2.40133928,0.537570099 2.40133929,1.20069643 C2.40133929,1.86365766 1.86339286,2.41277706 1.20066964,2.41277706 Z M9.99776786,10 L7.92901786,10 L7.92901786,6.74992745 C7.92901786,5.97535659 7.91339286,4.98203084 6.85111607,4.98203084 C5.77321429,4.98203084 5.60803571,5.82356748 5.60803571,6.69412263 L5.60803571,10 L3.53705357,10 L3.53705357,3.32351167 L5.52544643,3.32351167 L5.52544643,4.23424629 L5.55446429,4.23424629 C5.83125,3.70968101 6.50736607,3.15609722 7.51607143,3.15609722 C9.61428571,3.15609722 10,4.5378245 10,6.33250742 L10,10 L9.99776786,10 Z" id="Shape"></path>
                </g>
            </g>
        </g>
    </g>
</svg>