<?xml version="1.0" encoding="UTF-8"?>
<svg width="39px" height="39px" viewBox="0 0 39 39" version="1.1" xmlns="http://www.w3.org/2000/svg" xmlns:xlink="http://www.w3.org/1999/xlink">
    <!-- Generator: Sketch 56.3 (81716) - https://sketch.com -->
    <title>Group 2</title>
    <desc>Created with Sketch.</desc>
    <g id="Page-1" stroke="none" stroke-width="1" fill="none" fill-rule="evenodd">
        <g id="Desktop_blue" transform="translate(-1113.000000, -224.000000)">
            <g id="Group-2" transform="translate(1113.000000, 224.000000)">
                <circle id="Oval" fill="#321D49" cx="19.5" cy="19.5" r="19.5"></circle>
                <g id="linkedin-in" transform="translate(11.000000, 11.000000)" fill="#DFF0EA" fill-rule="nonzero">
                    <path d="M3.80526786,17 L0.280803571,17 L0.280803571,5.64996985 L3.80526786,5.64996985 L3.80526786,17 Z M2.04113839,4.101721 C0.914129464,4.101721 0,3.16821802 0,2.04118393 C0,0.913869168 0.913848798,0 2.04113839,0 C3.16842799,0 4.08227679,0.913869168 4.08227679,2.04118393 C4.08227679,3.16821802 3.16776786,4.101721 2.04113839,4.101721 Z M16.9962054,17 L13.4793304,17 L13.4793304,11.4748767 C13.4793304,10.1581062 13.4527679,8.46945243 11.6468973,8.46945243 C9.81446429,8.46945243 9.53366071,9.90006472 9.53366071,11.3800085 L9.53366071,17 L6.01299107,17 L6.01299107,5.64996985 L9.39325893,5.64996985 L9.39325893,7.19821869 L9.44258929,7.19821869 C9.913125,6.30645771 11.0625223,5.36536528 12.7773214,5.36536528 C16.3442857,5.36536528 17,7.71430164 17,10.7652626 L17,17 L16.9962054,17 Z" id="Shape"></path>
                </g>
            </g>
        </g>
    </g>
</svg>